<svg width="106" height="108" viewBox="0 0 106 108" fill="none" xmlns="http://www.w3.org/2000/svg">
<g id="food-dish-svgrepo-com 1">
<g id="Group">
<path id="Vector" d="M9.88289 73.6349H14.8243H90.922H95.5339C97.5105 73.6349 98.8282 72.2961 98.8282 70.2879C98.8282 68.2796 97.5105 66.9408 95.5339 66.9408H92.2397C91.5808 47.8627 78.7332 32.1316 61.6029 27.7805C62.2618 26.4416 62.5912 25.1028 62.5912 23.4293C62.5912 17.7393 58.3087 13.3882 52.7084 13.3882C47.1082 13.3882 42.8256 17.7393 42.8256 23.4293C42.8256 25.1028 43.155 26.4416 43.8139 27.7805C26.6837 32.1316 13.836 47.8627 13.1772 66.9408H9.88289C7.90633 66.9408 6.58862 68.2796 6.58862 70.2879C6.58862 72.2961 7.90633 73.6349 9.88289 73.6349Z" fill="#262626"/>
<path id="Vector_2" d="M18.1187 80.3289L20.7541 85.3494C21.0835 86.3535 22.4012 87.0229 23.7189 87.0229H82.0275C83.3452 87.0229 84.3335 86.3535 84.9923 85.3494L87.6278 80.3289H18.1187Z" fill="#262626"/>
</g>
</g>
</svg>
