<svg xmlns="http://www.w3.org/2000/svg" width="397" height="323" viewBox="0 0 397 323" fill="none">
<path d="M-438.08 300.81C-420.646 300.72 -403.14 301.563 -385.73 300.358C-379.83 298.762 -374.123 294.936 -367.96 295.358C-366.233 295.659 -364.651 296.773 -362.9 296.954C-360.286 296.804 -357.672 296.743 -355.082 297.286C-348.176 298.581 -341.509 301.473 -335.106 304.877C-331.941 306.654 -328.943 309.125 -325.49 310.028C-308.176 313.613 -290.598 311.083 -273.212 312.468C-250.814 313.041 -227.313 320.964 -205.73 310.179C-197.049 305.751 -199.759 301.443 -206.761 298.159C-213.38 295.327 -219.951 292.315 -226.833 290.538C-233.74 288.73 -240.862 289.664 -247.696 291.321C-260.478 294.725 -273.26 298.732 -286.425 298.4L-287.744 298.46H-288.392C-288.392 298.46 -288.608 298.46 -288.656 298.43C-288.56 298.551 -288.608 298.701 -288.608 298.701C-288.68 298.792 -288.56 298.701 -288.56 298.701L-288.656 298.159C-290.454 298.099 -292.085 297.858 -293.859 297.948H-294.723H-295.13L-295.322 297.858H-295.37C-295.37 297.858 -295.202 298.129 -295.37 298.219L-295.514 297.707C-299.303 297.707 -303.356 298.611 -306.617 295.93C-308.224 294.725 -309.735 293.068 -311.653 292.345C-317.528 290.357 -322.444 298.219 -328.296 295.749C-331.437 294.454 -334.627 292.857 -337.96 292.285C-338.368 292.194 -338.967 291.803 -338.967 291.743V291.411H-339.231L-347.36 290.99C-352.3 290.839 -359.327 291.08 -360.742 283.729C-360.814 282.193 -359.758 280.837 -358.583 280.386C-357.384 279.904 -356.041 280.386 -354.699 280.717C-350.646 281.259 -346.305 281.56 -342.516 279.301C-340.118 277.795 -338.44 274.571 -336.018 273.306C-334.771 272.643 -333.787 273.879 -332.948 275.204C-332.037 276.59 -330.694 277.433 -329.375 277.945C-328.08 278.488 -326.353 278.126 -326.113 279.632C-325.922 281.078 -326.425 282.916 -326.425 284.573C-326.737 286.591 -326.281 288.881 -327.097 290.598C-327.193 290.779 -327.384 290.749 -327.648 290.598C-329.231 289.333 -329.974 286.621 -329.711 284.302C-329.015 279.361 -326.329 275.053 -325.106 270.234C-324.89 269.42 -324.675 268.336 -325.226 267.402C-325.826 266.558 -326.545 266.408 -327.217 266.167C-329.95 265.775 -332.157 263.757 -335.25 263.727C-336.569 264.148 -337.097 266.649 -335.778 267.522C-335.658 267.673 -335.202 267.522 -335.13 267.311C-334.651 265.263 -335.49 262.401 -337.408 261.799C-338.943 261.407 -340.262 262.281 -341.461 261.979C-342.684 261.829 -342.612 259.66 -341.845 258.545C-339.399 255.623 -335.418 257.641 -332.444 258.093C-331.773 258.274 -330.91 258.636 -330.07 258.274C-330.238 258.274 -329.591 258.274 -329.998 257.431C-330.19 257.31 -330.166 257.37 -330.214 257.34H-330.502L-330.982 257.28C-331.317 257.25 -331.677 257.19 -332.013 257.19L-334.051 257.039C-336.761 256.828 -339.495 256.858 -342.085 256.135C-342.708 255.954 -343.308 255.653 -343.476 255.081C-343.691 254.478 -343.595 253.695 -343.356 252.942C-341.317 248.514 -340.31 243.302 -339.878 238.241C-338.488 224.896 -337.145 211.008 -332.085 198.958C-328.727 190.584 -322.972 183.866 -319.95 175.25C-319.831 174.286 -319.854 172.509 -320.958 172.479C-322.013 172.72 -322.348 173.473 -322.9 174.075C-325.106 177.058 -327.313 180.944 -329.399 183.956C-330.262 185.221 -331.077 186.788 -332.037 187.541C-332.3 187.692 -332.325 187.692 -332.396 187.571C-332.588 186.637 -332.205 185.312 -331.965 184.318L-330.838 179.468C-328.655 171.846 -326.233 163.984 -325.346 155.82C-327.6 161.363 -329.279 167.629 -331.485 173.051C-333.044 177.028 -337.36 183.354 -333.931 173.623C-332.301 168.201 -332.109 161.001 -328.224 157.627C-327.456 157.296 -326.497 157.537 -325.466 157.567C-324.723 157.477 -324.459 157.748 -323.691 157.145C-322.972 156.151 -323.883 155.067 -324.603 154.916C-325.658 154.645 -326.521 154.434 -327.36 153.982C-329.135 153.229 -329.279 150.608 -329.519 148.228C-329.735 145.818 -329.735 143.408 -329.615 140.968C-328.895 131.931 -326.857 120.694 -320.454 115.543C-313.5 111.777 -303.692 120.273 -297.768 111.898C-296.353 109.699 -295.394 105.06 -298.823 105.481C-301.605 105.722 -303.524 108.403 -305.874 108.946C-305.874 109.036 -305.874 108.705 -305.802 109.277C-305.826 109.488 -305.826 109.397 -305.802 109.397C-302.66 104.969 -297.289 99.6069 -299.327 92.859C-299.615 92.1059 -300.07 91.0515 -300.862 91.1419C-301.365 91.3528 -301.365 91.6239 -301.485 91.7745C-301.557 91.9552 -301.629 92.136 -301.677 92.2866L-301.965 93.1301C-304.195 104.638 -314.267 107.921 -322.516 108.885C-325.298 108.885 -328.296 108.735 -330.862 107.078C-331.365 106.837 -331.917 106.536 -332.684 106.807C-333.356 107.138 -333.691 107.65 -334.075 108.072C-334.747 108.946 -335.514 109.819 -335.802 109.367C-336.977 108.072 -337.073 105.15 -336.761 103.192C-336.617 102.107 -336.377 100.601 -336.185 99.5467C-335.802 99.1249 -337.696 98.5526 -337.217 99.0647C-337.72 100.39 -337.552 101.113 -337.576 102.047C-337.552 103.463 -337.672 105.511 -337.336 106.867C-337.193 107.349 -336.809 107.861 -336.305 107.68C-335.466 107.198 -335.538 106.626 -335.322 106.204C-334.267 102.499 -333.979 98.6429 -334.051 94.7267V94.6062V94.6966C-334.051 94.6966 -334.099 94.8171 -334.147 94.9075C-334.195 94.9677 -334.147 94.9075 -334.291 95.0581C-334.435 95.1786 -334.723 95.2087 -334.842 95.0882L-335.106 94.064C-335.802 95.6305 -336.641 97.4078 -337.768 97.3777C-338.799 97.4078 -339.998 95.51 -341.485 94.8171C-343.476 93.6121 -345.682 92.9192 -346.449 90.3586C-347.241 87.6474 -341.893 80.8693 -339.926 82.4659C-338.703 83.0684 -337.672 84.4843 -336.545 85.7797C-335.586 87.1353 -333.859 87.798 -332.9 89.0331L-332.732 87.8583C-332.828 87.8583 -333.14 88.3403 -333.044 88.7018C-332.996 88.9729 -332.924 89.003 -332.876 89.0934C-332.804 89.1838 -332.78 89.2139 -332.732 89.244L-332.588 89.3344L-332.276 89.5453L-331.965 89.244C-331.821 89.0934 -331.293 88.9729 -330.838 88.9729C-326.449 89.0633 -321.677 86.7135 -317.504 88.8825C-315.37 90.1176 -313.452 92.5276 -310.934 92.5577C-310.478 92.5577 -309.902 91.6841 -309.998 91.1419C-309.998 88.4909 -312.732 88.039 -314.123 87.6173C-316.737 86.7437 -319.878 84.9061 -320.814 81.502C-322.133 77.0736 -321.006 71.1993 -317.456 69.1809C-314.291 67.2529 -310.478 68.3977 -307.025 67.5542C-306.497 67.3734 -305.898 67.2831 -305.322 66.4094C-305.082 65.8973 -304.891 65.325 -305.298 64.5718C-305.754 63.9392 -306.161 64.0296 -306.473 63.9693C-307.097 63.9693 -307.624 64.0898 -308.152 64.2405L-311.125 65.0237C-312.085 65.2647 -313.14 65.4455 -313.979 65.3551C-314.387 65.3551 -314.651 65.0237 -314.627 64.9635C-314.195 63.2162 -312.205 62.0715 -311.557 60.0833C-311.509 59.8724 -311.437 59.6314 -311.461 59.3603C-311.461 59.2699 -311.389 59.1494 -311.581 58.6674C-311.821 58.2456 -312.181 58.2155 -312.301 58.2456C-312.852 58.3661 -312.924 58.4866 -313.212 58.6071L-313.931 58.9988C-316.545 60.505 -321.893 63.7886 -319.902 57.372C-319.83 57.0105 -319.783 56.649 -319.783 56.2273C-319.783 55.7152 -319.926 55.2332 -320.07 54.962C-320.382 54.3595 -320.31 53.9981 -320.358 54.1186C-320.334 54.1186 -320.598 54.2089 -319.807 54.0282C-319.711 53.9679 -319.471 53.7872 -319.375 53.4257C-319.327 53.0341 -319.375 53.0039 -319.399 52.8232C-319.495 52.5521 -319.615 52.4316 -319.687 52.3412C-319.878 52.1303 -319.95 52.1002 -320.046 52.0098C-320.478 51.6182 -320.502 51.5278 -320.454 51.2868C-320.454 50.9253 -319.854 50.4433 -319.926 49.148L-319.974 48.3948L-320.622 48.4852C-321.413 48.6057 -322.157 48.8166 -322.612 48.6961C-322.828 48.6057 -322.78 48.6358 -322.828 48.3948C-322.636 46.256 -321.077 44.2678 -321.101 41.9482C-320.886 39.8997 -321.629 37.8512 -321.509 36.4052C-321.437 35.5918 -321.221 34.8086 -320.838 34.3868C-320.502 33.7542 -319.303 33.9048 -318.631 34.0856C-318.631 34.0856 -318.679 34.0856 -318.799 33.8747C-318.895 33.694 -318.871 33.3023 -318.727 33.1216C-318.44 32.8204 -318.488 32.971 -318.512 32.9408C-318.536 32.9408 -318.631 32.9408 -318.727 32.9408L-319.207 32.8204C-320.598 32.489 -322.444 31.1635 -321.629 29.2054C-321.413 28.7535 -321.197 28.8138 -320.886 28.1811C-320.838 28.0305 -320.766 27.8799 -320.79 27.6389C-320.79 27.6389 -320.79 27.3979 -320.886 27.2473C-320.982 27.0665 -321.006 27.0364 -321.078 26.946C-321.245 26.7954 -321.245 26.8255 -321.341 26.7954C-321.557 26.7352 -321.653 26.7352 -321.749 26.7352H-322.253C-321.965 26.9761 -322.253 26.6448 -322.157 26.4942C-322.3 26.3737 -321.629 26.0423 -321.03 26.223C-320.382 26.3435 -319.711 26.6749 -318.967 26.9761C-318.488 27.1569 -317.816 27.2473 -317.409 27.3979L-317.48 27.3376L-317.528 27.2774C-317.528 27.2774 -317.72 26.9159 -317.696 26.7653C-317.744 26.8858 -317.648 26.1327 -317.36 26.0423C-317.217 25.9519 -317.121 25.9519 -317.121 25.9519L-317.313 25.8917H-317.36L-318.871 25.3494C-324.914 25.1687 -318.871 20.8307 -316.401 19.7763C-310.622 17.1856 -304.051 19.3546 -299.015 23.5118C-296.737 25.5302 -293.643 29.0849 -294.867 32.8505C-295.178 33.4831 -295.874 34.2663 -295.538 35.2906C-295.394 35.8629 -295.082 36.1943 -294.867 36.4353C-294.387 36.8872 -294.027 37.2788 -294.099 37.3391C-294.099 37.5198 -294.195 37.8512 -294.483 37.8813C-294.795 37.9717 -295.25 37.8813 -295.682 37.7006C-295.922 37.5801 -296.042 37.5198 -296.329 37.3391L-296.641 37.1583C-296.641 37.1583 -296.809 36.8872 -296.641 37.3089C-296.569 37.6704 -296.689 38.1826 -297.073 38.3332C-297.361 38.3934 -297.217 38.3332 -297.265 38.3633H-297.313H-297.361H-297.289L-297.217 38.4236C-297.241 38.4236 -297.073 38.5139 -297.289 38.3633C-296.833 38.6043 -296.281 39.2369 -296.138 39.8394C-296.042 40.1407 -296.138 40.3515 -296.066 40.2009C-297.648 40.3817 -299.543 38.2127 -300.934 36.9173C-300.958 36.9173 -300.982 36.7064 -300.91 37.1282C-300.814 37.3089 -301.078 37.7608 -301.173 37.7909C-301.221 37.8211 -301.269 37.7909 -301.173 37.8211C-300.79 37.8813 -299.974 38.4537 -299.375 38.6947C-294.291 40.954 -299.135 47.8827 -296.881 52.4316C-295.682 55.8357 -293.739 58.577 -293.739 61.8907C-293.739 65.325 -294.843 69.1207 -294.051 72.6152C-293.763 74.995 -292.54 78.0677 -291.461 79.8451C-291.413 79.9355 -291.557 79.815 -291.269 79.5438C-290.958 79.4233 -291.102 79.5438 -291.197 79.4233C-291.413 79.3028 -291.701 79.0619 -291.965 78.8209C-294.315 76.8929 -297.576 76.0494 -300.43 75.8988C-302.516 75.8084 -304.603 76.2904 -306.425 75.5071C-306.713 75.3866 -306.809 74.7841 -306.713 74.0009C-306.09 70.8679 -304.914 67.2228 -304.891 63.5175C-304.579 54.0884 -310.07 46.8585 -313.452 39.2068C-313.715 38.4537 -313.955 37.6403 -313.955 36.9776C-314.003 36.2847 -313.691 35.7726 -313.476 35.6521C-313.476 35.6822 -313.715 35.5918 -313.691 35.5918C-313.691 35.5918 -313.62 35.7425 -313.572 35.8931C-313.26 37.2487 -313.116 38.5139 -312.612 39.8093C-310.814 45.3522 -304.699 44.8401 -301.869 48.184C-299.998 50.4132 -299.807 54.1186 -298.799 57.5829C-297.864 61.228 -295.13 63.4271 -292.948 65.6865L-292.828 64.3007C-293.548 65.2948 -292.996 65.4153 -293.092 65.5057C-291.174 68.2471 -289.207 71.1993 -287.888 74.513C-285.226 80.9898 -286.545 89.3043 -285.706 96.3233C-283.859 111.325 -297.816 115.453 -303.787 125.394C-304.603 127.051 -305.442 129.4 -304.099 131.72C-301.437 134.1 -297.792 128.165 -295.898 126.237C-292.732 122.411 -289.519 118.314 -286.018 115.061C-285.49 114.579 -284.723 114.338 -284.747 114.458C-283.739 116.567 -284.651 119.339 -284.867 121.779L-285.73 127.292C-291.03 153.319 -286.281 179.92 -281.437 205.375C-279.159 218.298 -275.658 236.464 -273.763 249.297C-273.38 252.912 -271.653 262.19 -271.869 265.775C-271.917 267.522 -272.205 269.3 -273.068 270.414C-274.962 272.975 -278.344 272.312 -280.982 272.192C-286.929 271.86 -292.876 270.595 -298.871 270.565C-303.332 270.264 -307.744 272.403 -311.941 270.565C-313.595 269.812 -315.202 268.065 -316.449 266.408C-316.497 266.408 -316.377 266.347 -316.449 266.829C-316.473 266.98 -316.593 267.131 -316.641 267.161L-316.689 267.221C-316.689 267.221 -316.737 267.251 -316.785 267.251C-316.905 267.251 -316.497 267.342 -316.233 267.552C-308.2 273.577 -301.054 269.059 -293.092 266.287L-293.715 264.63C-294.483 265.263 -293.092 266.95 -293.452 266.287H-293.38L-293.26 266.347H-293.14H-292.948H-292.564H-291.821H-291.102C-290.886 266.347 -290.79 266.408 -290.574 266.468C-289.831 266.709 -289.375 267.372 -289.015 268.396C-288.56 270.565 -287.313 273.186 -287.6 274.843C-287.72 275.837 -289.087 276.469 -289.951 277.012L-290.334 277.283C-290.454 277.373 -290.574 277.464 -290.694 277.765C-290.862 277.704 -290.694 279.03 -290.454 278.97L-290.358 279.06C-290.07 279.241 -289.951 279.211 -289.831 279.211C-289.159 279.181 -288.847 278.97 -288.296 278.909C-287.385 278.789 -286.425 278.759 -285.61 278.909C-285.466 278.909 -285.154 279.211 -285.442 278.849C-285.586 278.578 -285.562 278.126 -285.394 277.976C-285.37 277.976 -285.394 277.976 -285.466 278.006C-287.744 278.488 -290.406 277.976 -292.756 279.512C-294.579 280.566 -296.233 281.801 -297.984 282.163C-299.711 282.705 -301.341 281.44 -303.643 281.38C-306.161 281.289 -308.104 284.633 -307.576 287.555C-306.521 293.158 -302.013 295.749 -297.984 296.261C-292.325 297.316 -285.946 296.141 -280.286 295.99C-279.111 295.84 -277.96 296.111 -276.977 294.755C-275.586 292.526 -278.344 290.989 -279.807 291.14C-280.406 291.321 -280.31 291.411 -280.838 291.471L-282.301 291.652L-282.684 291.712H-282.9L-282.996 291.773C-282.684 291.381 -284.003 292.496 -283.548 293.128C-283.524 293.219 -283.476 293.279 -283.428 293.369C-283.236 293.64 -283.116 293.671 -283.02 293.731C-282.109 294.002 -282.037 293.821 -281.198 293.851C-281.365 293.851 -280.214 293.851 -280.55 292.496C-281.581 291.411 -280.886 292.194 -281.126 291.923H-281.174H-281.221H-281.126C-279.903 294.032 -281.413 293.701 -281.341 293.821H-281.198C-279.135 293.942 -276.737 294.635 -274.411 293.189C-273.236 289.182 -272.876 284.513 -274.483 280.416C-274.986 279.271 -275.058 279.211 -274.938 278.156C-274.699 277.162 -275.034 275.957 -275.178 274.963C-273.284 263.636 -279.543 255.201 -287.768 251.918C-293.907 249.297 -300.262 248.423 -306.569 247.399C-312.157 246.435 -319.998 246.224 -322.468 238.994C-324.315 231.373 -318.032 224.203 -318.608 216.34C-318.943 211.972 -321.677 207.634 -325.346 207.484C-328.967 207.393 -331.821 209.773 -334.627 211.43C-343.116 217.154 -341.077 204.833 -338.488 198.597C-336.353 192.331 -332.732 185.252 -334.507 178.082C-336.665 171.033 -343.619 167.117 -349.255 169.014C-354.339 171.123 -356.185 178.715 -356.137 184.739C-356.329 193.174 -351.701 205.977 -344.315 196.91C-331.701 179.046 -353.404 158.651 -346.737 139.854C-345.61 136.239 -344.027 132.774 -342.852 128.948C-339.279 117.23 -345.058 104.909 -344.435 93.2807C-344.603 84.5446 -336.401 83.1588 -331.006 82.2551L-330.598 82.1948L-330.382 81.7731C-326.953 75.6578 -320.694 71.5307 -315.154 69.2111C-312.277 68.6086 -309.135 69.6328 -306.209 70.9282C-300.406 73.8201 -294.339 76.923 -288.775 80.538C-286.018 82.3756 -283.548 84.9663 -280.598 86.8642C-274.987 90.7201 -268.632 92.4372 -263.62 97.5283C-253.716 107.53 -246.881 121.538 -239.807 134.642C-232.78 148.078 -225.85 161.634 -217.96 174.377C-192.613 216.672 -159.543 238.271 -117.121 227.276C-111.342 225.98 -104.028 223.51 -98.4641 221.1C-66.9533 209.592 -44.0997 177.028 -27.0733 143.318C-10.2868 111.235 0.216766 75.0854 14.4134 41.4059C15.2287 39.8093 16.188 38.0621 17.1952 37.2487C21.3438 35.9232 26.212 40.5624 30.6244 40.4118C43.3822 41.6168 45.8522 23.3009 40.9601 11.8535C40.4805 10.9197 39.809 9.86529 38.658 9.41342C37.4589 9.0218 36.3558 9.50379 35.5404 10.3473C33.8858 12.2451 33.8138 14.7455 33.6939 16.7639C33.1424 27.0364 37.339 39.267 46.116 41.5264C52.5668 43.1833 58.9457 39.1767 65.1327 41.2252C71.6315 43.2736 73.526 51.7086 76.6195 58.3661C83.3581 72.0127 87.5307 87.8583 96.6194 99.6672C105.636 112.199 120.936 115.965 132.926 108.102C143.886 99.3659 154.533 90.2381 163.382 78.1882C169.953 69.0002 173.334 57.4022 178.154 46.979C182.662 38.0319 187.794 29.4163 191.415 19.7462C191.391 20.4692 192.063 17.758 190.049 17.8785C189.569 18.1797 189.593 18.2701 189.497 18.3605C179.329 32.0371 191.895 53.5462 192.59 69.0303C194.413 79.815 185.348 123.134 195.636 125.394C201.487 125.303 206.403 120.604 211.943 119.158C216.499 118.284 221.511 118.646 226.164 117.953C245.372 115.935 264.149 110.843 283.262 108.313C287.29 107.65 291.295 107.56 295.3 107.108C296.235 106.957 297.482 106.174 297.986 105.12C302.302 95.2991 288.561 75.4469 286.691 65.3551C285.084 57.6733 286.883 49.5697 286.403 41.5867C286.139 26.1025 275.564 22.3068 265.564 19.0533C262.542 17.9086 259.521 16.7036 257.147 14.5045C253.454 11.01 250.312 5.07545 245.3 3.53909C243.166 2.90647 239.329 3.53909 238.897 7.09381C238.801 11.2812 241.775 14.143 243.885 16.7337C248.849 22.2164 254.581 25.9218 259.089 31.3442C264.797 38.0621 269.233 46.497 272.039 55.6549C273.741 61.3485 273.813 67.5241 276.523 73.0369C278.298 76.5916 280.36 79.6342 282.063 82.9479C292.446 102.77 272.83 96.2028 263.789 97.7994C246.547 101.475 229.473 108.644 211.967 108.584L213.046 109.578C212.614 108.343 212.207 108.283 211.871 107.891C211.535 107.59 211.2 107.349 210.888 107.108C202.351 100.511 207.435 85.9604 206.26 75.5975C205.444 68.8797 205.3 61.1979 201.919 55.444C201.583 55.0825 201.224 54.3294 200.072 54.3294C195.42 56.3177 199.329 67.4036 199.665 71.4102C200.72 78.3087 201.631 85.4182 200.936 92.3469C200.48 97.0162 199.017 101.354 196.092 104.186C194.893 105.27 193.43 104.969 191.607 104.939C188.298 104.487 185.348 107.259 183.622 110.663C179.977 117.019 179.617 125.394 181.224 132.563C182.015 136.178 183.286 139.643 184.989 142.746C188.058 148.68 193.837 152.235 195.444 158.953C196.188 162.236 195.18 164.948 193.334 167.388C191.152 170.43 187.435 174.136 187.195 179.227C186.763 185.583 188.706 191.969 188.873 198.115C188.969 201.609 188.73 205.134 188.466 208.689C186.859 222.877 188.969 237.578 187.219 251.677C186.403 258.726 185.156 265.715 184.005 272.764C183.31 277.945 181.655 283.97 182.902 289.242C183.142 290.959 183.214 292.556 182.806 293.701C182.566 295.629 171.655 301.865 171.463 297.466C171.439 297.346 171.463 297.225 171.439 297.376C171.439 297.436 171.391 297.707 171.176 297.978C171.008 298.159 170.84 298.28 170.624 298.25L171.799 296.924C172.015 290.809 177.938 290.869 180.168 286.32C181.367 284.211 181.871 279 182.447 276.62C184.101 268.306 186.26 259.991 187.003 251.165C188.034 242.489 186.308 233.451 184.677 225.137C183.262 218.871 184.725 212.545 184.533 206.098C184.389 190.945 183.694 175.1 178.01 161.393C177.363 159.435 176.739 157.416 176.308 155.488C175.42 151.421 176.475 147.053 175.78 142.685C174.821 135.455 168.202 132.714 164.557 128.707C161.391 125.755 159.881 121.297 158.61 116.778L158.514 116.537C158.466 116.447 158.394 116.326 158.322 116.236C158.658 115.844 156.356 115.663 156.619 116.236C156.404 116.447 156.26 117.14 156.284 117.079V117.26C156.427 121.237 156.739 125.123 158.73 128.497L159.209 126.087C144.941 131.901 129.065 135.757 114.557 129.4C111.104 127.834 107.938 125.153 104.653 122.562C94.9408 115.362 84.0775 108.554 79.0656 95.2991C74.1255 82.8877 71.1279 66.1383 60.6483 58.5469C55.9481 54.3897 65.4924 51.7387 67.7946 52.7629C67.6987 51.8291 68.1064 54.9319 67.6028 50.6542C63.4541 53.4257 55.1328 55.1729 50.3606 51.7387C47.2671 49.5396 45.0368 45.5933 42.4229 41.918C39.833 38.1223 36.1879 34.3868 31.9433 34.3567C28.2982 34.0253 24.2695 35.8027 21.1041 33.5132C19.905 32.6697 19.3055 30.8321 20.2647 29.6573C23.622 26.9761 29.2335 30.0489 33.0464 28.151C33.2143 28.0004 33.5261 27.9703 33.8618 27.2171C34.0297 26.7653 34.0297 26.3435 33.9098 25.9218C33.7419 25.3795 33.7659 25.5904 33.6939 25.4398C29.4733 18.4207 22.5189 25.3193 17.5549 26.4339C17.1712 26.5243 16.7635 26.4339 16.7875 26.4339C16.7875 26.4339 16.9314 26.6147 16.9314 26.6448C16.9314 26.705 16.9314 26.6448 16.9314 26.5845C16.9554 26.4339 17.1712 26.1025 17.4829 25.8314C18.1064 25.2289 18.9458 24.7168 19.8091 24.1444C20.6724 23.7227 21.8954 22.5177 22.399 21.6139C26.3558 13.9623 33.7419 15.1371 40.0968 14.4443C42.0153 14.143 43.7659 13.3296 45.5644 13.5104C46.3798 13.6309 46.6436 13.8719 46.9073 14.5949C47.363 15.9806 47.0033 18.2098 46.7395 19.7462C45.5645 20.409 48.3222 18.6918 48.2743 19.0835C48.4421 19.2341 48.586 19.445 48.61 19.6257C48.658 19.7462 48.6579 19.8667 48.6579 19.8667C48.6579 19.927 48.6579 19.8667 48.6579 19.7763C49.857 15.1371 53.574 14.4744 57.1951 13.7213C61.08 12.8778 63.8857 8.32893 67.4589 7.39506C71.4637 6.43107 71.4876 12.3656 70.5044 15.9505C70.2886 16.8844 69.8329 18.0592 69.4732 18.3906C69.3054 18.4508 69.713 18.3906 69.6171 18.4508C69.3054 17.758 69.9529 15.7396 70.1687 14.5045L70.8401 10.9799C71.6315 8.08793 72.0392 4.20184 74.2694 3.05709C76.7634 3.11734 76.7394 7.15406 76.9792 10.046C77.1231 12.4259 77.0272 14.866 77.5788 17.5471C78.2982 20.4993 79.8809 22.1863 81.1279 23.9637C84.9648 29.1753 86.3797 36.4052 88.2741 43.0025C91.7993 56.167 93.7178 74.1214 105.205 80.6886C116.571 85.7797 129.065 80.4175 139.689 74.8745C145.181 71.4102 148.514 65.325 153.214 60.9267C161.511 54.7813 169.593 47.2802 175.348 37.3993C182.063 26.1025 189.545 13.5405 201.367 12.6669C205.228 12.4259 208.202 15.3781 211.655 17.4266C215.3 19.9872 220.168 18.7521 223.622 16.1614C228.777 12.5765 232.542 7.00344 238.322 5.79845C243.717 4.83445 249.641 6.34069 254.029 10.4377C257.027 13.179 259.545 16.8542 262.446 20.1981C268.082 27.3075 276.547 28.9945 283.669 32.3082C287.386 33.9048 290.48 37.1583 294.317 38.2428C298.202 39.5382 302.135 39.6888 305.9 40.2612C309.641 40.8637 313.43 41.7373 316.283 44.5088C319.161 47.2802 321.559 51.2266 324.197 54.7512C326.763 58.336 329.257 61.9811 331.367 65.9275C335.828 73.6996 337.386 83.1889 340.024 92.4372C342.398 101.806 348.034 109.849 354.077 115.694C354.724 116.417 355.156 117.32 355.084 117.772C355.06 117.863 355.156 117.772 354.868 117.953C352.83 118.375 350.528 117.622 348.657 116.477C343.477 113.253 340.959 103.945 338.25 97.8898L339.76 106.987C342.326 127.894 348.01 148.198 352.734 168.412C354.796 178.383 354.389 190.463 360.12 198.988C362.087 201.79 364.269 203.989 366.067 206.52C373.477 215.888 366.163 224.625 364.58 234.927C362.686 245.29 361.727 255.924 360.72 266.438C360.384 269.932 360 273.427 359.592 276.891C359.089 282.012 356.739 287.314 357.314 292.767C358.034 296.984 359.305 304.034 355.444 305.269C352.926 305.66 349.425 305.088 347.027 306.835C344.988 307.829 341.919 309.727 340.384 307.407C339.688 306.112 339.641 304.967 340.24 303.823C342.878 299.906 348.753 298.912 349.305 292.857C351.823 275.385 354.365 257.913 354.437 240.109C354.221 231.583 355.3 221.401 352.278 213.479C351.319 211.581 351.391 209.743 349.353 208.598L349.904 209.141L346.379 201.218C342.614 193.385 341.175 184.107 336.835 176.666C332.758 169.044 327.147 162.929 322.087 156.543C318.921 151.723 315.42 146.481 312.183 141.872C311.967 141.571 311.919 141.48 311.583 141.269C311.511 141.149 310.792 141.119 310.552 141.48C310.048 142.233 310.24 142.324 310.192 142.414C309.976 143.499 310.264 144.613 310.504 145.517C313.573 152.265 317.938 157.718 322.23 163.351C324.653 166.665 328.13 168.562 329.736 172.479C331.943 179.498 329.257 186.758 329.665 194.56C330.024 200.706 330.912 206.791 332.59 212.635C334.653 218.238 335.971 223.45 334.269 229.445C331.463 241.013 323.957 249.598 319.521 260.262C316.283 268.456 312.47 276.138 309.305 284.392C307.458 288.128 308.154 293.52 306.163 296.954C303.693 299.696 299.737 299.304 296.523 299.334C293.669 299.123 290.648 298.792 288.034 297.346C287.554 297.135 287.219 296.502 287.338 296.773C287.698 294.544 290.672 293.731 292.398 293.038C296.067 291.562 298.969 287.977 301.079 284.121C306.475 273.849 309.065 262.13 314.892 252.219C317.77 247.248 319.736 240.561 318.513 234.445C317.722 229.475 318.25 221.642 318.154 216.461C318.465 204.26 316.451 192.06 313.669 180.402C311.223 168.532 304.317 159.103 301.343 147.686C300.144 141.842 300.528 134.853 296.643 130.214C296.163 129.611 295.444 129.129 294.677 128.888C292.566 128.406 290.744 130.545 289.233 131.63C287.362 133.226 285.324 132.322 283.238 130.846C281.127 129.28 278.466 127.533 275.876 128.466C273.286 129.28 271.223 131.117 269.209 132.714C265.252 135.968 260.624 137.745 256.068 139.251C242.159 143.86 227.267 142.384 213.358 146.541L211.631 146.571C213.622 149.132 214.701 152.385 214.941 156.151C215.756 165.219 216.259 174.286 217.195 183.384C217.866 189.439 218.849 195.494 220.432 201.338C222.063 207.213 224.725 212.454 224.988 218.298C225.348 224.113 223.933 230.348 225.372 236.675C226.859 242.519 228.226 248.303 230 254.057C232.351 261.076 235.252 267.643 236.547 275.144C237.434 279.723 236.379 283.79 236.739 288.73L237.171 287.646C236.691 287.977 236.667 288.399 236.619 288.579C236.547 290.206 237.147 291.743 237.578 293.189C237.962 294.514 238.154 295.87 237.986 297.135C237.578 299.846 235.348 300.961 233.358 299.997L232.59 299.605C232.255 299.455 231.943 299.274 231.583 299.183C227.722 297.557 219.113 305.811 218.442 297.406C218.466 296.412 219.353 295.659 220.408 295.177C222.662 294.032 225.66 294.153 227.267 291.261C228.921 288.429 228.538 284.874 228.25 281.741C226.763 266.558 222.878 251.857 218.777 237.578C215.036 226.312 213.478 213.75 207.89 203.598C203.118 196.307 201.751 187.601 199.977 178.654C199.209 176.124 199.137 172.509 197.003 170.972C195.132 169.978 194.749 172.84 194.725 174.105C194.221 185.493 194.581 197 194.125 208.357C193.622 220.407 191.871 232.517 191.272 244.688C191.128 255.442 189.929 265.805 188.49 276.349L188.298 278.638C188.226 279.422 188.178 280.205 188.346 281.018C188.394 281.169 188.466 281.591 188.993 281.832L188.466 281.199C188.945 283.278 189.041 285.567 188.226 287.254C187.674 288.369 185.588 289.965 185.972 292.104C186.164 293.821 187.171 295.147 186.571 296.683C186.188 297.436 186.02 298.34 185.18 298.521C183.622 299.003 181.799 298.28 179.713 298.581C177.722 298.942 175.828 299.967 174.389 301.925C169.809 309.757 186.092 308.07 188.658 305.118C192.063 302.527 194.221 298.521 196.811 295.388C203.79 285.206 217.65 295.779 206.763 305.72C198.73 311.324 189.161 311.474 180.096 311.294C172.71 311.053 165.324 310.661 157.962 309.697C128.202 307.076 100.96 288.399 70.9601 287.796C55.7802 287.164 42.1591 296.834 28.1064 302.286C8.58606 311.263 -7.02542 300.268 -25.6105 294.424C-36.5457 291.502 -47.7927 291.14 -58.9198 291.02C-73.7878 291.02 -88.5599 291.893 -103.404 293.49C-104.028 293.671 -105.035 293.61 -105.538 294.604C-105.754 295.538 -105.179 295.84 -105.131 295.93C-104.819 296.171 -104.579 296.231 -104.339 296.352C-90.6463 299.696 -76.6176 300.057 -62.7327 301.322C-47.9366 302.316 -33.1165 303.009 -18.2724 302.919C-14.7712 302.588 13.718 303.672 9.0657 295.99C8.68201 295.478 8.27432 295.117 7.84268 294.785C3.8139 291.893 -0.166901 288.851 -4.26761 286.139C-45.6584 257.37 -87.8646 251.044 -133.596 265.835C-140.79 268.185 -148.176 270.083 -154.819 274.391C-161.509 278.638 -167.409 284.392 -173.5 289.634C-184.459 300.81 -199.735 302.075 -210.382 313.643L-210.886 314.276C-211.126 314.427 -211.102 315.3 -210.838 315.451C-206.713 317.288 -202.037 316.294 -197.744 316.415L-186.641 316.114C-120.047 315.391 -53.1884 313.945 13.3582 317.198C28.1783 318.011 42.9026 320 57.7227 320.903C83.6938 322.741 120.336 321.928 146.619 322.289C161.415 322.229 176.379 322.892 190.936 318.945C200.936 316.415 210.624 312.017 219.713 306.202C220.552 305.69 221.319 305.088 222.231 305.028C237.53 307.769 248.969 289.544 263.693 287.465C267.339 286.862 271.151 287.284 274.437 289.483C277.746 291.562 280.648 294.514 283.813 296.924C293.621 305.299 305.924 298.129 315.564 292.827C318.873 291.261 322.902 289.152 326.067 292.014C328.873 295.086 328.681 300.81 331.895 303.672C333.501 304.998 335.492 304.907 337.29 305.178C341.079 305.178 344.077 309.155 347.914 308.884C349.784 308.643 351.511 307.588 353.094 306.383C356.187 303.943 359.521 301.142 363.333 302.316C367.938 303.28 372.086 306.022 376.307 308.341C382.374 311.173 389.185 310.269 395.564 311.083C410.36 311.986 425.18 312.499 440 313.011C419.664 312.017 399.209 312.077 378.969 309.366C373.669 307.408 368.921 303.19 363.357 302.196C357.338 300.238 353.477 307.92 347.914 308.703C346.067 308.914 344.317 307.889 342.638 306.926C339.401 304.305 335.252 305.72 331.991 303.491C328.849 300.72 329.065 295.026 326.187 291.833C324.7 290.236 322.614 290.297 320.816 290.538C311.919 293.309 303.837 300.449 294.365 300.479C290.648 300.75 287.051 299.153 283.933 296.653C272.518 286.17 266.355 283.669 253.046 291.14C243.07 296.683 233.622 306.835 222.207 304.606C221.247 304.666 220.384 305.329 219.569 305.841C210.504 311.625 200.84 315.963 190.864 318.493C176.308 322.41 161.392 321.717 146.619 321.747C120.073 321.235 83.7898 322.048 57.7466 320.211C42.9505 319.277 28.2024 317.258 13.4062 316.445C-53.1644 313.071 -120.023 314.396 -186.641 314.999C-192.804 314.939 -202.66 315.933 -208.776 314.999C-209.327 314.999 -209.807 314.758 -210.19 314.577C-210.118 314.547 -210.118 315.059 -210.19 314.999C-205.49 309.004 -198.896 306.353 -192.804 303.19C-185.826 300.027 -178.92 296.171 -172.924 290.598C-166.809 285.356 -160.91 279.632 -154.339 275.475C-147.768 271.228 -140.43 269.39 -133.332 267.07C-87.7926 252.4 -45.9702 258.816 -4.81915 287.435C-0.742432 290.116 3.21439 293.158 7.21918 296.02C7.9386 296.532 8.65802 297.496 8.41821 297.677C7.50696 298.852 5.25278 299.455 3.78995 299.726C-3.45224 301.111 -10.9103 301.202 -18.2724 301.322C-44.1476 301.262 -70.0948 299.786 -95.8502 296.442C-98.7039 295.93 -101.749 295.719 -104.435 294.544C-104.555 294.484 -104.243 294.544 -104.363 295.207C-104.555 295.568 -104.483 295.388 -104.435 295.388C-104.123 295.237 -103.668 295.147 -103.236 295.056C-88.56 293.49 -73.7159 292.616 -58.9438 292.616C-44.1956 292.797 -29.2316 293.43 -15.2747 299.786C-8.24838 302.618 -1.17407 305.751 6.30792 306.926C29.0897 310.962 48.4181 288.489 70.9361 289.453C100.696 290.086 128.154 308.793 157.818 311.414C165.204 312.378 172.638 312.77 180.049 313.041C189.257 313.222 199.185 313.041 207.507 307.197C213.358 302.859 214.221 292.315 206.523 289.905C197.938 286.411 193.837 298.973 187.914 303.552C184.413 306.022 179.065 306.594 175.252 304.726C174.989 304.455 174.941 304.335 174.965 304.124C175.636 301.865 178.034 300.75 179.881 300.358C181.487 300.027 183.382 300.84 185.492 300.268C187.123 299.756 188.25 297.376 188.178 295.237C188.178 293.761 186.883 291.923 187.579 290.809C187.914 290.086 188.849 289.453 189.425 288.188C190.576 285.808 190.36 283.006 189.833 280.687L189.305 280.054C189.689 280.205 189.665 280.476 189.689 280.416C189.497 279.723 189.905 277.403 189.929 276.56C191.367 266.106 192.59 255.412 192.734 244.808C193.358 232.668 195.108 220.769 195.612 208.478C196.068 197.091 195.732 185.673 196.212 174.286C196.212 173.563 196.355 172.78 196.475 172.629C196.499 172.659 196.212 172.659 196.427 172.72C196.955 173.111 197.291 174.045 197.531 174.919C198.562 179.166 199.569 183.595 200.312 188.053C201.463 197.332 207.195 204.2 210.144 212.484C212.71 220.919 214.725 229.806 217.339 238.241C221.727 253.876 226.188 269.812 226.979 286.411C226.739 293.49 221.775 291.261 218.058 294.665C216.02 296.472 216.907 300.539 218.658 302.106C219.881 303.22 221.391 303.401 222.686 303.22C225.708 302.919 228.298 300.449 231.271 301.172C233.118 302.045 235.06 303.009 237.027 301.804C239.761 300.208 240.192 295.689 239.089 292.586C238.849 291.411 238.202 290.176 238.202 289.031C238.202 289.031 238.202 289.272 237.89 289.513L238.322 288.429C238.106 285.808 238.514 282.615 238.538 279.542C238.322 270.234 234.245 261.859 231.511 253.454C229.785 247.851 228.394 241.977 226.931 236.253C225.612 230.68 226.931 224.595 226.595 218.298C226.259 211.792 223.478 206.399 221.967 200.826C218.801 189.379 218.274 177.148 217.315 165.128C216.595 158.983 217.219 152.355 214.005 147.023L213.382 148.71C227.53 144.613 242.327 146.029 256.499 141.39C261.223 139.854 265.996 137.986 270.12 134.612C272.159 133.015 274.149 131.298 276.283 130.635C278.394 129.912 280.36 131.298 282.494 132.835C284.629 134.522 287.794 135.636 290.096 133.618C291.199 132.804 292.159 131.871 293.118 131.389C294.053 130.876 294.82 131.087 295.588 131.961C297.147 133.768 298.01 136.54 298.466 139.402C299.137 145.276 300.144 151.783 302.686 156.934C306.043 164.887 310.192 172.509 312.087 181.185C313.406 186.999 314.653 192.813 315.444 198.717C316.979 207.273 316.331 216.973 316.403 225.709C315.995 231.583 318.01 237.849 316.667 243.423C315.204 249.086 311.823 253.665 309.569 258.967C303.789 271.439 301.199 289.242 288.37 292.676C287.027 293.43 285.684 294.815 285.612 296.894C285.612 297.858 286.044 298.34 286.331 298.701C291.607 302.377 298.082 302.196 303.885 301.021C305.084 300.629 306.499 300.027 307.482 298.611C308.442 297.255 308.873 295.538 309.113 293.972C309.497 290.869 309.808 288.308 310.912 285.477C314.029 277.373 317.866 269.601 321.079 261.527C327.41 246.706 342.806 230.619 334.293 212.063C332.686 206.52 331.823 200.555 331.487 194.62C331.127 186.366 335.132 174.557 328.993 167.809C323.142 162.176 318.609 155.609 314.005 148.439C313.094 146.843 311.895 145.186 311.991 143.228V143.047C311.943 142.956 312.135 142.836 311.751 143.469C311.415 143.86 310.888 143.71 310.768 143.529C314.317 148.59 317.386 153.229 320.768 158.35C325.9 164.797 331.319 170.701 335.372 178.233C339.641 185.432 341.031 194.861 344.82 202.573L348.346 210.526L348.585 211.038C349.64 211.038 350.12 213.539 350.672 214.714C352.47 219.413 352.638 224.534 352.59 229.746C352.638 235.831 352.71 244.808 352.302 250.833C351.559 264.841 349.473 278.759 347.53 292.556C347.218 294.153 346.787 295.599 345.828 296.382C343.31 299.063 337.914 300.509 337.986 305.901C338.13 308.13 339.353 310.42 341.127 310.872C343.429 311.655 345.875 310.299 347.818 309.245C350.528 307.407 352.926 308.462 355.923 307.829C359.329 307.046 360.648 301.684 359.976 297.918C359.545 294.213 358.753 291.11 359.545 287.857C362.734 274.421 363.046 259.81 364.94 246.013C365.923 239.145 366.739 232.246 369.233 225.92C370.384 222.727 371.631 219.142 371.415 215.196C371.031 207.333 365.372 202.754 361.679 197.603C356.235 189.288 356.835 178.172 354.7 168.02C349.928 147.566 344.389 127.804 341.775 106.686L339.928 107.5C342.446 114.187 347.29 120.875 353.813 120.785C355.108 120.905 357.075 120.242 357.146 118.194C357.194 116.145 356.235 115.001 355.516 114.097C352.446 110.874 349.64 107.891 347.29 104.156C342.398 96.6547 340.888 87.0148 338.346 77.9773C335.923 68.5784 331.031 60.4146 325.78 53.2449C321.967 48.0635 318.01 41.1047 312.063 39.3273C306.499 37.2487 300.36 37.7909 294.916 35.9533C291.127 34.8387 288.082 31.6455 284.461 30.1091C280.768 28.3318 277.003 27.2172 273.454 25.5904C265.66 22.7888 261.511 14.5949 255.324 8.56992C250.384 4.02109 244.101 2.39435 238.082 3.44872C232.063 4.56334 227.578 10.6787 222.686 14.1129C219.521 16.3421 215.972 17.4869 212.59 15.2877C209.185 13.179 205.516 9.89542 201.415 10.287C193.238 10.8594 186.116 17.0651 180.984 24.5662C173.814 35.8027 167.147 47.8827 157.027 55.1428C150.073 59.1193 145.396 68.3374 138.85 72.7356C128.898 77.9472 116.739 83.1588 106.14 78.4895C102.806 76.7121 100.145 73.3381 98.2262 69.3918C92.4948 57.1009 91.3437 41.677 86.2118 28.6933C85.0128 24.3553 80.912 21.0416 79.737 17.0651C78.7538 12.5464 80.0488 6.64194 77.5788 2.39435C72.7826 -3.44985 69.6411 5.64783 68.8497 10.528L68.1783 14.0526C67.7946 16.0409 66.8113 18.4207 68.1783 20.5897C70.2406 23.1503 72.3509 18.9931 72.6866 16.9446C73.55 13.2995 74.0296 7.60593 70.6723 5.40683C65.2526 2.51485 60.9121 10.5582 56.7874 11.251C52.6627 11.9439 47.9865 13.5104 46.6436 19.2341C46.4037 20.0173 46.5476 21.1018 47.1951 21.6139C47.267 22.1863 50.0728 20.168 48.9217 20.7102L48.9697 20.409L49.0416 19.927C50.2167 13.7815 48.3941 9.53392 42.6627 11.251C36.9313 12.9079 30.8163 11.2812 25.3486 14.7756C23.0705 15.9204 21.5836 19.0533 19.9529 21.0416C18.2503 22.5177 15.9002 23.0298 14.893 25.7712C13.9578 29.7476 17.5069 29.838 19.4494 28.9644C23.4542 27.5184 29.1376 22.8491 31.8714 27.0665C31.7995 26.7954 31.8235 26.5243 31.9194 26.1929C32.1592 25.7109 32.2071 25.8314 32.1831 25.8013C30.9122 26.2532 29.4014 26.2532 28.0824 26.1628C24.9409 25.982 21.5837 25.1084 18.8259 27.7895C16.6436 30.1091 17.7707 34.7182 20.0009 36.104C21.9913 37.6102 24.2455 37.7608 26.2119 37.7006C28.2263 37.6102 30.1208 37.2487 31.8954 37.3692C35.4445 37.3692 38.3462 40.5022 40.8163 44.0268C43.3342 47.5212 45.6364 51.7688 49.3294 54.4499C53.1183 57.131 57.4828 56.9503 61.3198 56.2574C63.7898 55.926 66.3317 54.9922 68.562 53.4558L68.9217 53.2148C69.0176 53.1244 69.0176 53.1847 69.3294 52.8232C68.8498 48.425 69.0416 51.4977 68.8737 50.5036C65.6123 48.8166 56.2119 51.2567 57.1951 57.4323C57.5308 59.1193 58.4901 60.264 59.3054 61.0774C62.5668 63.879 65.3485 66.7709 67.339 70.7474C73.502 82.5262 75.3246 98.8538 84.1735 108.915C89.761 115.874 96.9552 120.273 103.502 125.303C112.95 134.281 125.564 137.142 137.195 135.516C145.612 134.522 153.742 131.78 161.679 128.497C159.401 125.936 158.826 121.538 158.682 117.772V117.832C158.706 117.742 158.586 118.435 158.37 118.586C158.658 119.098 156.404 118.947 156.739 118.586C156.691 118.495 156.619 118.405 156.571 118.314L156.643 118.555C157.89 123.315 159.905 128.225 163.166 131.268C168.969 137.263 174.941 138.076 173.742 149.674C173.694 151.843 173.646 154.163 174.149 156.543C175.588 162.839 178.226 168.623 179.713 174.708C181.895 184.8 182.039 195.946 182.255 206.429C182.423 212.876 180.96 219.594 182.447 226.041C184.077 234.475 185.732 242.459 184.725 251.134C184.029 259.539 181.919 267.733 180.216 276.168C179.209 280.295 179.233 285.236 176.763 286.802C173.646 288.79 169.689 291.682 169.497 296.894L170.672 295.568C170.288 295.568 169.905 295.719 169.617 296.081C169.017 296.834 169.041 297.828 169.209 298.521C169.809 303.25 174.389 302.618 177.075 301.503C179.281 300.629 181.248 299.394 183.19 297.828C183.838 297.286 184.629 296.472 185.037 295.267C185.804 293.038 185.54 290.899 185.324 289.092C184.269 283.699 185.636 279.06 186.403 273.698C187.555 266.679 188.826 259.63 189.641 252.43C191.439 238 189.305 223.691 190.888 209.291C191.655 202.152 191.343 194.379 190.049 187.481C189.689 184.197 189.137 180.793 190.049 177.6C191.463 172.991 196.307 169.918 197.722 164.707C199.353 158.712 195.876 152.747 192.686 149.102C188.418 144.372 184.965 139.1 183.55 132.142C181.871 124.791 182.614 116.326 186.859 110.753C188.154 108.795 189.545 108.072 191.679 108.162C193.358 108.192 195.828 108.524 197.578 106.837C200.984 103.614 202.878 98.1911 203.334 93.0699C204.509 82.2249 201.751 71.139 200.288 60.8063C200.288 59.6615 200.168 58.577 200.576 57.613C200.672 57.2515 200.816 57.372 200.408 57.4925C200.001 57.4323 200.216 57.4022 200.36 57.6733C202.471 61.4991 203.07 66.2588 203.622 70.898C204.557 77.9774 204.149 84.9964 203.742 92.1661C203.526 98.1308 204.629 105.451 208.921 109.126L209.881 109.849C210.168 110.06 210.456 110.271 210.72 110.512C210.96 110.663 211.2 111.115 211.032 110.723L212.111 111.717C228.418 111.717 243.885 105.813 259.593 101.927C267.482 98.8237 275.732 102.8 283.573 99.2153C293.262 92.9192 281.919 78.9715 278.538 71.8922C276.931 68.7291 276.331 64.8731 275.588 60.9267C273.358 48.9371 267.746 38.0621 260.696 29.597C255.9 23.8733 250.096 20.1077 245.444 14.9262C244.269 13.3899 240.24 9.23267 241.391 7.18419C241.655 6.82269 242.327 6.55157 242.974 6.40094C245.108 5.94907 247.027 7.24444 248.777 8.9013C251.223 11.2209 253.262 14.2936 255.948 16.9145C258.777 19.5052 261.991 20.7102 265.06 21.8851C270.864 24.1444 277.626 25.5302 281.607 31.4647C287.314 41.6469 282.207 54.8114 284.725 66.2588C287.746 77.7966 294.485 87.3763 296.667 98.9743C296.979 100.782 297.027 102.65 296.379 103.734C295.972 104.758 294.341 104.819 292.806 104.879C270.384 106.445 248.418 113.253 226.116 115.513C221.224 116.236 216.547 115.814 211.631 116.778C206.907 118.134 202.614 121.327 198.01 122.682C196.523 123.134 195.228 123.225 194.725 122.02C193.909 120.634 193.502 118.827 193.214 116.989C191.272 97.1969 198.298 76.3808 192.662 56.9804C190.36 46.1355 183.79 29.9284 190.96 20.4391C191.008 20.3487 191.176 20.2583 190.864 20.4391C189.089 20.4391 189.665 18.24 189.569 19.1136C185.924 28.5426 181.008 36.9474 176.523 45.8041C171.751 56.167 168.346 67.7349 161.991 76.6519C155.732 85.5989 147.794 92.5879 140.049 99.4563C130.552 109.669 116.643 113.705 105.492 105.301C91.3917 94.8171 86.6914 73.8804 78.442 57.1913C76.02 52.1906 74.4133 45.6535 70.4085 41.8276C60.7682 32.3986 46.8834 46.8886 39.3774 33.2722C36.5956 28.7234 35.5405 22.7286 35.7803 17.0049C35.8282 15.1371 36.116 13.179 36.9313 12.3355C37.8666 11.4318 38.7299 11.7029 39.4973 13.2995C41.6076 18.0894 41.9433 24.6264 40.9121 29.8982C39.3774 38.0018 31.8954 39.6587 26.4278 37.0378C23.2144 36.0437 19.7611 33.4229 16.3798 35.3207C11.2959 40.8938 9.37744 49.1781 6.33188 56.4683C0.960175 71.0788 -4.19565 85.7797 -9.87909 100.149C-29.4234 148.74 -54.9869 202.272 -98.8717 219.052C-129.447 232.337 -162.9 232.216 -189.591 207.002C-210.262 187.903 -224.291 160.188 -238.2 133.558C-245.418 120.212 -252.253 106.174 -262.421 95.9317C-267.48 90.7503 -274.027 88.9126 -279.639 85.0868C-284.939 80.9597 -290.598 76.3506 -296.593 73.6394C-302.564 70.6872 -308.512 66.0781 -315.322 67.1927C-321.653 69.8437 -327.6 73.8201 -331.629 80.7187L-331.006 80.2367C-335.778 81.1103 -341.341 81.9237 -344.579 87.0449C-348.2 96.5945 -343.979 107.259 -343.356 117.019C-342.109 125.273 -345.706 131.84 -348.128 139.161C-349.375 142.956 -349.95 147.294 -349.399 151.361C-347.96 165.942 -336.065 182.028 -345.346 195.554C-351.149 203.146 -354.603 191.307 -354.387 184.8C-354.651 177.6 -351.029 168.562 -344.363 170.852C-341.461 171.665 -338.512 173.382 -336.881 176.395C-332.516 185.252 -339.854 194.801 -341.581 203.507C-342.684 207.213 -342.852 214.262 -338.751 214.924C-332.948 215.256 -326.737 204.983 -321.773 211.822C-318.272 216.37 -320.838 222.305 -322.492 227.487C-332.324 254.358 -299.807 247.068 -288.176 253.816C-282.421 256.165 -277.001 261.407 -276.281 269.33C-276.066 270.957 -276.785 272.885 -276.617 275.234C-276.401 276.68 -276.209 276.891 -276.353 277.915C-276.401 278.367 -276.473 279.12 -276.305 279.783C-276.138 280.476 -275.874 280.958 -275.73 281.289C-274.411 284.543 -274.603 288.61 -275.61 292.134L-275.25 291.592C-276.689 292.435 -278.68 292.074 -280.622 291.923H-281.006L-281.221 291.893C-281.173 292.044 -282.708 291.712 -281.461 293.791H-281.317L-281.269 293.821C-281.509 293.58 -280.79 294.363 -281.821 293.279C-282.133 291.893 -281.006 291.923 -281.198 291.923C-281.269 291.923 -281.725 291.923 -281.917 291.923C-282.109 291.923 -282.445 291.923 -282.349 291.923C-282.349 291.923 -282.253 291.923 -282.109 292.164C-282.061 292.225 -282.037 292.285 -282.013 292.345C-281.533 292.978 -282.828 294.062 -282.516 293.671C-282.564 293.671 -282.373 293.671 -282.373 293.671C-281.557 293.52 -280.19 293.55 -279.471 293.098C-279.255 293.128 -278.919 293.189 -278.68 293.279C-278.536 293.309 -277.984 293.64 -278.008 293.731C-278.056 293.671 -277.984 293.46 -278.032 293.58C-278.224 294.002 -279.255 294.062 -280.238 294.122C-287.504 294.122 -296.209 296.683 -302.852 292.375C-304.315 291.14 -305.634 289.242 -305.946 287.254C-306.305 285.356 -305.01 283.217 -303.5 283.308C-301.653 283.368 -299.567 284.693 -297.6 284.061C-295.466 283.579 -293.715 282.253 -291.989 281.259C-289.903 279.843 -287.409 280.446 -284.914 279.843C-284.603 279.723 -284.195 279.512 -284.003 279C-283.859 278.759 -283.835 278.156 -284.051 277.825C-284.363 277.313 -284.555 277.313 -284.723 277.222C-286.042 276.74 -287.432 276.921 -288.703 277.072C-288.919 277.102 -289.015 277.162 -289.135 277.192C-289.351 277.253 -289.591 277.313 -289.663 277.313C-289.663 277.313 -289.663 277.313 -289.495 277.373L-289.447 277.433C-289.207 277.343 -289.063 278.668 -289.231 278.578C-289.279 278.699 -289.399 278.849 -289.375 278.819C-288.152 277.976 -286.329 277.343 -285.994 275.234C-285.658 272.162 -286.881 270.354 -287.48 267.613C-288.008 265.504 -289.854 264.178 -291.653 264.419H-292.373H-292.732H-292.9H-292.948C-292.948 264.419 -292.948 264.419 -292.924 264.419H-292.9C-293.284 263.757 -291.893 265.414 -292.66 266.046L-293.284 264.389C-300.358 266.739 -307.456 271.318 -314.483 266.468C-314.675 266.347 -314.771 266.317 -314.914 266.227L-315.418 265.865C-315.802 265.655 -316.113 265.263 -316.977 265.383C-317.097 265.444 -317.217 265.474 -317.336 265.564L-317.504 265.715C-317.504 265.715 -317.696 266.016 -317.744 266.197C-317.864 266.89 -317.648 267.101 -317.6 267.281C-317.432 267.643 -317.289 267.793 -317.145 268.004C-315.73 269.721 -314.171 271.348 -312.325 272.252C-307.888 274.27 -303.164 272.041 -298.727 272.342C-295.778 272.342 -292.828 272.674 -289.855 273.035C-268.895 276.018 -268.32 273.999 -272.205 248.905C-275.466 227.667 -280.334 204.17 -283.763 182.992C-286.833 164.646 -287.816 145.818 -284.219 127.563C-283.835 124.098 -282.756 119.851 -282.804 116.296C-282.852 115.091 -282.972 114.037 -283.787 113.043C-284.914 112.169 -285.778 112.952 -286.665 113.555C-292.229 118.405 -296.185 125.454 -301.749 130.153C-302.349 130.545 -302.972 130.666 -303.044 130.425C-303.14 130.364 -303.212 130.003 -303.284 129.641C-303.428 128.436 -303.092 127.352 -302.54 126.297C-297.361 117.622 -286.209 114.157 -284.363 101.987C-283.931 96.4438 -284.795 90.5394 -284.699 84.9964C-284.363 77.3749 -287.672 69.8738 -291.797 64.7225C-291.917 64.7827 -291.389 64.8128 -292.085 65.7768L-291.965 64.3911C-294.195 62.0715 -296.617 60.2339 -297.408 57.0105C-298.368 53.9378 -298.464 49.871 -300.814 46.979C-304.195 43.0025 -309.255 44.3581 -311.269 39.1164C-311.533 38.3934 -311.725 37.5801 -311.893 36.7366L-312.157 35.4111C-312.229 34.7182 -312.996 33.7241 -313.667 34.0555C-314.842 34.5375 -315.202 35.9835 -315.154 37.0378C-315.01 39.9599 -313.428 42.3398 -312.277 44.5991C-306.473 54.8415 -304.363 61.7401 -307.888 73.79C-308.056 74.8745 -307.84 76.441 -306.905 76.9832C-306.042 77.5255 -305.25 77.4954 -304.579 77.5857C-299.998 77.5255 -295.394 77.4954 -291.533 80.9898C-291.293 81.0501 -291.078 81.3513 -290.43 80.9898C-289.855 80.4476 -289.95 79.815 -289.998 79.4836C-290.358 78.2184 -290.958 77.6761 -291.245 77.0435C-291.845 75.6276 -292.301 73.9406 -292.588 72.2838C-293.356 68.9701 -292.253 65.7166 -292.253 61.8305C-292.325 55.926 -296.881 52.6726 -295.946 47.0091C-295.73 45.3522 -295.274 43.4845 -295.538 41.4662C-295.706 38.8453 -297.984 37.4294 -299.663 36.6462C-300.142 36.4052 -300.694 36.0437 -301.317 36.1642C-301.413 36.1943 -301.509 36.2244 -301.629 36.3148C-301.725 36.4052 -301.653 36.3148 -301.845 36.5257C-302.013 36.7667 -302.037 37.0077 -302.013 37.2186C-301.893 37.8512 -301.773 37.7909 -301.701 37.9717C-300.142 39.4779 -298.751 41.1348 -296.569 41.7373C-296.162 41.7674 -295.658 41.918 -295.034 41.3457C-294.507 40.7733 -294.555 39.8997 -294.723 39.2369C-295.082 37.9416 -296.066 36.9474 -296.713 36.7366L-296.809 36.7064H-296.881L-296.929 36.6763C-296.953 36.6763 -297.025 36.6763 -297.073 36.6763C-297.121 36.6763 -296.977 36.6462 -297.265 36.7064C-297.528 36.7667 -297.744 37.2186 -297.72 37.4294V37.7307C-297.384 38.4838 -297.241 38.3633 -297.097 38.5139C-296.737 38.7248 -296.353 38.9959 -295.922 39.1767C-294.651 39.8997 -292.54 39.4177 -292.636 37.1282C-292.828 35.8027 -293.596 35.5316 -293.859 35.14C-294.027 34.9592 -294.123 34.8086 -294.123 34.7483C-294.123 34.658 -294.147 34.7182 -294.051 34.4772C-293.763 34.0253 -293.26 33.1818 -293.212 32.5191C-292.54 28.0606 -295.514 24.3252 -298.104 22.1261C-305.106 16.1915 -315.946 14.2936 -322.205 22.7286C-322.564 23.4214 -322.732 24.536 -322.3 25.4398C-321.797 26.4038 -321.03 26.5544 -320.478 26.6448C-319.902 26.7351 -319.351 26.7352 -318.991 26.8557L-317.48 27.3678H-317.528L-317.169 27.4581C-317.097 27.4581 -317.097 27.4883 -316.881 27.4883C-316.857 27.4883 -316.737 27.4883 -316.593 27.3979C-316.089 26.9761 -316.185 26.3435 -316.521 26.0122C-316.641 25.8917 -316.665 25.8917 -316.713 25.8615C-317.025 25.7109 -317.169 25.7109 -317.384 25.6507C-317.816 25.5603 -318.104 25.5 -318.416 25.3795C-319.471 25.018 -320.766 24.2348 -322.013 24.6264C-322.54 24.7469 -323.236 25.4699 -323.236 26.1929C-323.308 26.8556 -323.164 27.5485 -322.756 27.9703C-322.42 28.3016 -321.773 28.2113 -321.509 28.2715C-321.557 28.2715 -321.509 28.2715 -321.653 28.1811C-321.701 28.1209 -321.725 28.1209 -321.797 27.9703C-321.869 27.8196 -321.869 27.6088 -321.869 27.6389C-321.869 27.5184 -321.869 27.4581 -321.821 27.428C-321.797 27.3678 -321.917 27.5485 -322.061 27.669C-322.229 27.8196 -322.468 28.1811 -322.564 28.4523C-323.26 30.079 -322.756 32.2781 -321.557 33.1517C-320.55 33.9952 -319.495 34.417 -318.32 34.5073C-318.176 34.4471 -318.008 34.5977 -317.576 34.1458C-317.36 33.9048 -317.36 33.3626 -317.504 33.0915C-317.648 32.7902 -317.768 32.7601 -317.864 32.6697C-318.248 32.4287 -318.559 32.4287 -318.919 32.3986C-319.615 32.3082 -320.766 32.3082 -321.485 33.2421C-323.452 35.7726 -321.989 38.9357 -322.133 41.8276C-322.181 44.328 -323.883 46.015 -323.859 48.5756C-323.859 49.2685 -323.26 50.1722 -322.708 50.2325C-321.701 50.5036 -320.958 50.1421 -320.262 50.0818L-320.958 49.4191C-320.958 49.4191 -321.197 49.9915 -321.461 50.835C-321.581 51.2868 -321.557 51.9496 -321.317 52.4014C-321.005 53.0039 -320.694 53.1847 -320.334 53.5161C-320.334 53.5161 -320.334 53.5161 -320.382 53.3956C-320.382 53.2751 -320.43 53.3052 -320.382 53.0039C-320.31 52.7027 -320.142 52.5822 -320.094 52.5521C-319.783 52.5219 -320.646 52.4316 -321.006 52.9437C-321.821 54.1186 -321.126 55.2332 -321.006 55.6549C-320.622 56.2574 -321.125 57.4624 -321.365 58.8783C-321.701 60.4447 -320.79 62.4932 -319.447 62.7041C-317.073 63.0957 -314.723 60.987 -312.636 60.0531C-312.444 59.9326 -312.037 59.7519 -312.085 59.782C-312.085 59.782 -312.277 59.782 -312.468 59.5109C-312.588 59.2096 -312.54 59.2398 -312.54 59.3C-312.9 60.8364 -314.099 61.469 -315.01 62.8547C-315.346 63.4572 -315.802 63.9995 -315.706 65.2346C-315.442 66.4998 -314.555 66.8011 -313.979 66.8914C-312.181 67.0421 -309.495 66.1986 -307.744 65.7166C-307.265 65.5961 -306.785 65.4756 -306.377 65.4756C-306.185 65.4756 -306.018 65.5961 -306.138 65.4756C-306.209 65.2346 -306.137 65.4455 -306.209 65.4153C-307.504 66.6203 -310.022 66.0781 -311.653 66.289C-315.802 65.9877 -320.934 68.1567 -322.037 73.8804C-324.171 84.6952 -318.08 87.9185 -311.581 90.0574C-311.245 90.3586 -311.125 90.6298 -311.102 90.9913C-311.173 91.1419 -310.982 90.8406 -311.054 90.931C-313.092 90.5996 -314.986 88.5511 -316.857 87.4064C-319.807 85.6592 -323.188 86.4725 -326.281 86.834C-327.289 86.9847 -328.368 87.2257 -329.255 87.316L-330.814 87.3763C-331.365 87.4667 -331.893 87.3763 -332.612 87.9788L-331.989 87.8884C-331.989 87.8884 -331.965 87.8884 -331.893 87.9788C-331.869 88.039 -331.821 88.0691 -331.749 88.3403C-331.653 88.7018 -331.965 89.1536 -332.061 89.1536L-331.893 87.9788C-333.044 86.4123 -334.507 86.0809 -335.61 84.6048C-336.713 83.3697 -337.768 81.8333 -339.399 80.9898C-342.756 79.6342 -345.61 84.0927 -347.097 87.3763C-348.967 92.2565 -344.771 94.6363 -341.869 96.0823C-340.262 96.8053 -339.543 98.6128 -337.648 98.7936C-335.658 98.7333 -334.795 96.4438 -333.955 94.6966L-333.667 94.0941L-334.219 93.7025C-334.339 93.6121 -334.627 93.6121 -334.771 93.7326C-334.914 93.8832 -334.866 93.823 -334.914 93.9133C-334.962 94.0037 -335.01 94.1242 -335.01 94.1242V94.2447C-335.058 97.6488 -335.13 101.204 -335.946 104.427C-336.065 104.849 -336.137 105.27 -336.257 105.632C-336.305 105.963 -336.617 106.385 -336.449 106.204C-336.353 106.144 -336.113 106.264 -336.113 106.325C-336.113 106.355 -336.113 106.325 -336.113 106.265C-336.233 105.752 -336.281 105.15 -336.257 104.578V102.047C-336.281 101.294 -336.257 100.089 -336.137 99.878V99.9383C-335.682 100.42 -337.528 99.8479 -337.145 99.4864C-337.145 99.3961 -337.145 99.4262 -337.145 99.4262V99.4864L-337.193 99.6973L-337.265 100.209L-337.408 101.143C-338.032 103.794 -338.344 110.813 -335.13 110.904C-333.931 110.602 -333.068 108.795 -332.109 108.162C-331.917 108.072 -331.461 108.162 -331.077 108.403C-328.344 110.12 -325.274 110.301 -322.253 110.301C-312.612 109.006 -303.332 105.843 -300.478 92.7987C-300.43 92.6782 -300.406 92.5577 -300.358 92.4674C-300.358 92.377 -300.214 92.3469 -300.478 92.4674C-300.55 92.4674 -300.67 92.4674 -300.694 92.4674H-300.67C-297.456 98.4019 -303.643 104.517 -306.497 108.705C-306.545 108.825 -306.617 108.855 -306.665 109.217C-306.593 109.94 -306.497 109.729 -306.425 109.94C-305.538 110.813 -304.531 110 -303.763 109.548C-302.013 108.464 -300.334 107.048 -298.56 106.837C-296.497 106.295 -297.432 109.458 -298.44 111.205C-299.519 112.952 -301.365 113.916 -303.188 114.278C-308.008 115.151 -312.9 113.043 -317.792 113.374C-326.953 115.422 -329.567 131.268 -330.43 140.968C-330.598 144.734 -330.574 148.469 -329.782 152.205C-329.471 153.5 -328.607 154.705 -327.6 155.187C-326.497 155.85 -325.202 155.82 -324.267 156.422C-324.267 156.422 -324.267 156.482 -324.243 156.392C-324.171 156.392 -324.411 156.452 -324.651 156.452C-324.866 156.452 -325.106 156.482 -325.346 156.452C-326.257 156.452 -327.289 156.121 -328.416 156.573C-332.948 160.007 -332.924 167.9 -334.675 173.292C-335.058 175.069 -336.185 176.726 -335.994 178.805C-335.946 179.227 -335.682 179.769 -335.274 179.95C-334.842 180.13 -334.459 179.95 -334.195 179.769C-332.444 178.142 -331.653 175.883 -330.55 173.654C-328.631 169.255 -327.504 164.496 -325.826 160.128L-326.665 159.796C-327.864 168.05 -330.934 175.973 -332.636 184.167C-332.828 185.041 -333.02 185.764 -333.14 186.698C-333.188 187.149 -333.236 187.752 -332.924 188.324C-332.66 188.927 -331.845 188.957 -331.461 188.595C-329.567 186.728 -327.6 183.083 -326.018 180.793L-323.452 176.817C-322.684 175.853 -321.749 173.955 -320.79 173.623C-320.814 173.533 -320.622 173.774 -320.574 174.105C-320.382 175.22 -320.934 176.335 -321.341 177.329C-324.914 184.529 -329.375 191.036 -332.636 198.597C-337.744 210.828 -339.063 224.745 -340.478 238.241C-340.814 241.615 -341.245 244.959 -342.181 248.092C-343.164 251.225 -346.137 255.985 -342.085 257.129C-338.2 258.123 -334.243 257.822 -330.358 258.334H-330.142C-330.142 258.334 -330.094 258.364 -330.238 258.274C-330.646 257.4 -329.926 257.491 -330.286 257.581C-333.955 257.581 -338.967 254.147 -342.205 258.063C-343.236 259.479 -343.284 262.582 -341.413 262.913C-339.902 263.214 -338.559 262.371 -337.384 262.732C-336.089 263.064 -335.37 265.173 -335.49 266.799C-335.49 266.86 -335.514 266.95 -335.514 266.95C-335.514 266.89 -335.274 266.829 -335.298 266.86C-335.994 266.378 -335.562 264.871 -334.866 264.66C-332.468 264.66 -329.854 266.649 -327.169 267.07C-325.802 267.402 -324.914 268.215 -325.538 270.053C-327.217 276.68 -333.62 285.537 -327.744 291.381C-327.456 291.622 -326.785 291.773 -326.425 291.23C-325.226 288.549 -325.946 285.145 -325.37 282.253C-325.01 280.355 -325.154 278.006 -327.025 277.765C-327.744 277.584 -328.368 277.554 -328.991 277.313C-330.238 276.831 -331.461 276.078 -332.276 274.812C-333.092 273.457 -334.531 271.89 -336.018 272.704C-338.655 274.09 -340.118 277.192 -342.588 278.759C-346.185 280.958 -350.502 280.627 -354.387 280.145C-355.682 279.873 -357.097 279.301 -358.535 279.843C-359.902 280.386 -361.173 281.952 -361.101 283.91C-360.981 285.808 -359.974 287.284 -358.991 288.459C-355.826 292.194 -351.173 291.471 -347.193 291.803L-339.063 292.194L-339.327 291.863C-339.207 292.526 -338.871 292.556 -338.655 292.737C-338.416 292.887 -338.176 292.948 -337.936 293.038C-334.531 293.61 -331.533 295.147 -328.272 296.472C-322.396 299.033 -317.408 291.23 -311.629 293.038C-308.176 294.695 -305.178 298.852 -301.102 298.491C-299.159 298.581 -297.241 298.37 -295.346 298.37L-295.49 297.858C-295.49 297.858 -295.634 298.039 -295.562 298.25C-295.466 298.46 -295.466 298.37 -295.418 298.43C-295.346 298.46 -295.298 298.491 -295.274 298.491L-295.034 298.551L-294.579 298.611C-294.195 298.641 -292.444 298.611 -291.989 298.611C-290.838 298.611 -289.687 298.762 -288.56 298.822L-288.656 298.28C-288.656 298.28 -288.751 298.28 -288.871 298.521C-288.919 298.581 -288.967 298.792 -288.823 298.973C-288.656 299.123 -288.44 299.123 -288.296 299.123H-287.624L-286.305 299.063H-283.691C-271.413 298.942 -259.423 295.026 -247.505 291.893C-240.694 290.236 -233.62 289.302 -226.785 291.08C-218.44 293.701 -209.711 296.382 -202.133 301.563C-196.354 306.956 -207.553 310.721 -210.67 312.047C-231.006 319.608 -252.349 312.74 -273.092 312.288C-290.502 310.932 -308.056 313.493 -325.346 309.938C-328.775 309.034 -331.749 306.564 -334.938 304.787C-342.972 300.66 -351.413 296.834 -360.19 296.773C-362.852 297.406 -365.322 296.05 -367.864 295.327C-374.051 294.936 -379.758 298.762 -385.658 300.358C-403.068 301.563 -420.55 300.78 -437.984 300.901L-438.08 300.81Z" fill="#B9AF7B"/>
</svg>