<svg width="143" height="58" viewBox="0 0 143 58" fill="none" xmlns="http://www.w3.org/2000/svg">
<path d="M79.1689 42.9073C80.2562 42.9073 81.1348 42.0808 81.1348 41.0716C81.1348 40.0624 80.2562 39.236 79.1689 39.236C78.0816 39.236 77.2031 40.0624 77.2031 41.0716C77.2031 42.0808 78.0816 42.9073 79.1689 42.9073Z" fill="white"/>
<path d="M29.2142 40.4974C29.4751 40.4974 29.9536 40.5844 30.2058 40.828C30.4668 41.089 30.5189 41.3674 30.5276 41.6283C30.5276 44.4732 30.7886 53.8689 30.3276 55.5045C30.1362 56.1831 29.7448 56.8355 29.1098 57.2096C28.0138 57.8534 26.5785 57.7055 25.2999 57.7229L25.2999 57.9491C26.0827 57.9491 26.97 58.01 27.8311 57.9491C28.9793 57.8708 30.1797 57.4271 30.9365 56.6006C31.3105 56.1918 31.5889 55.7046 31.7367 55.1913C31.902 54.6432 31.9107 54.0342 31.9368 53.4687C31.9542 53.1207 31.9542 52.764 31.9629 52.4161C31.9629 52.1812 31.9629 51.9463 31.9629 51.7114L31.9629 51.085C31.9629 50.6326 31.9542 50.1802 31.9629 49.7278C31.9629 49.6234 31.9629 49.5451 31.9629 49.4581L31.9629 47.1788C31.9455 45.4301 31.9194 43.6728 31.9629 41.9154L31.9629 41.8893C31.9629 41.8023 31.9629 41.7066 31.9629 41.6196C31.9629 41.35 32.0151 41.0803 32.2847 40.8193C32.537 40.567 33.0154 40.4887 33.2764 40.4887L33.2764 40.2538L29.2055 40.2538L29.2055 40.4887L29.2142 40.4974Z" fill="white"/>
<path d="M121.009 39.8536C119.661 39.8536 118.312 39.8536 116.955 39.8536C117.991 39.9058 118.278 41.1847 118.278 42.1504C118.278 44.6907 118.26 47.231 118.26 49.7713C118.26 50.6326 118.191 51.6244 117.451 52.1377C116.947 52.4857 116.26 52.5031 115.633 52.5031C96.8358 52.5292 78.0471 52.564 59.2497 52.5901C57.3709 52.5901 55.2571 52.5031 53.9958 51.1981C52.578 49.7365 52.9259 47.492 52.4562 45.5694C51.7429 42.681 48.8116 40.4104 45.6366 40.2799C42.9488 40.1755 40.3045 41.611 38.9562 43.7598C37.634 45.8738 37.8515 48.5708 39.1737 50.6413C39.8782 51.7375 40.8873 52.6597 42.1224 53.2251C45.2365 54.6606 49.4118 53.6601 51.395 50.998C52.404 53.3295 50.9688 56.3049 48.4375 57.1574C51.2471 56.8007 53.3696 53.9298 52.7259 51.3547C53.7523 53.3121 56.5793 53.5818 58.9192 53.5818C77.6035 53.5818 96.2791 53.5818 114.963 53.5818C116.068 53.5818 117.26 53.5557 118.156 52.9468C119.504 52.0246 119.608 50.2237 119.591 48.6665C119.565 46.6394 119.539 44.6124 119.513 42.5853C119.495 41.4457 119.8 39.9493 121.018 39.8275L121.009 39.8536ZM50.7078 49.3973C50.5513 50.1367 50.2729 50.8675 49.8293 51.52C49.3857 52.1812 48.742 52.7554 47.9591 53.1555C47.1675 53.5557 46.2368 53.7558 45.3061 53.7645C44.3753 53.7645 43.4446 53.5557 42.653 53.1555C41.8615 52.7554 41.2265 52.1812 40.7829 51.52C40.3392 50.8588 40.0609 50.1367 39.8956 49.3973C39.7304 48.6578 39.6695 47.9009 39.6608 47.1353C39.6695 46.3697 39.7304 45.6129 39.8956 44.8734C40.0522 44.1339 40.3306 43.4031 40.7829 42.7506C41.2265 42.0895 41.8702 41.5153 42.653 41.1151C43.4446 40.7149 44.3753 40.5148 45.3061 40.5061C46.2368 40.5061 47.1675 40.7149 47.9591 41.1151C48.7507 41.5153 49.3857 42.0895 49.8293 42.7506C50.2729 43.4118 50.5513 44.1339 50.7078 44.8734C50.8731 45.6129 50.934 46.3697 50.9427 47.1353C50.934 47.9009 50.8731 48.6578 50.7078 49.3973Z" fill="white"/>
<path d="M13.3564 5.8114L21.3242 5.8114L21.2981 6.0202C19.715 6.44648 18.9234 7.32516 18.7756 11.1879L18.4711 27.4042L18.1406 27.4042L3.93597 9.15211L4.24042 21.0795L4.24042 21.1404L4.26652 21.8103C4.41439 25.586 5.60607 26.3428 8.46787 26.8909L8.46787 27.0997L0.500076 27.0997L0.52617 26.8909C2.13539 26.4646 2.92695 25.586 3.08352 21.6276L3.32708 8.39523L1.5004 6.0202L1.70916 5.8114L4.44918 5.8114L17.8361 22.4192L17.5665 11.04C17.4186 7.32516 16.2269 6.56828 13.3651 6.0202L13.3651 5.8114L13.3564 5.8114Z" fill="white"/>
<path d="M34.8681 6.11597L42.8359 6.11597L42.8011 6.32476C41.131 6.77715 40.2786 7.72542 40.2786 12.1362L40.2786 19.7746C40.2786 25.0641 38.1823 27.7175 32.6761 27.7175C27.5962 27.7175 24.6474 25.3772 24.6474 19.6528L24.6474 9.22178C24.6474 7.79502 24.1951 6.63795 22.151 6.33346L22.151 6.12467L29.5447 6.12467L29.5447 6.33346C27.5092 6.63795 27.0482 7.79502 27.0482 9.22178L27.0482 19.5049C27.0482 24.0375 29.7273 25.9253 33.4329 25.9253C37.4516 25.9253 39.5131 24.6204 39.5131 19.966C39.5131 16.7384 39.3304 14.4938 39.1217 11.7795C38.7911 7.69932 37.8169 6.88155 34.8594 6.33346L34.8594 6.12467L34.8681 6.11597Z" fill="white"/>
<path d="M61.4331 25.0465C62.3725 26.4124 62.7378 26.8996 63.1641 27.2041L63.1641 27.4129L56.9012 27.4129L56.9012 27.2041C58.1798 26.9344 58.8148 26.3863 58.0581 24.7073L52.9782 15.1201L48.8116 15.1201L48.8116 24.3071C48.8116 25.7338 49.8728 26.8648 52.8303 27.1954L52.8303 27.4042L43.9143 27.4042L43.9143 27.1954C45.9498 26.8909 46.4108 25.7338 46.4108 24.3071L46.4108 9.22168C46.4108 7.57742 45.7149 6.51605 44.5232 6.33335L44.5232 6.12456L48.4462 6.12456C49.6901 6.12456 51.5168 5.82007 54.5874 5.82007C59.0584 5.82007 61.7636 7.18593 61.7636 10.4135C61.7636 13.0931 59.2671 14.9461 54.4917 15.1288L61.4244 25.0465L61.4331 25.0465ZM48.8116 13.6673C50.0555 14.2153 51.943 14.8243 53.6827 14.8243C57.3622 14.8243 58.9714 13.3976 58.9714 11.2052C58.9714 8.52569 56.0487 6.67264 52.7085 6.67264C50.8557 6.67264 48.8116 7.34253 48.8116 9.98725L48.8116 13.6673Z" fill="white"/>
<path d="M36.0859 1.36586L36.0859 0L27.5701 -3.72238e-07L27.5701 1.36586L36.0859 1.36586Z" fill="white"/>
<path d="M73.6461 16.0772C73.6461 9.23915 78.5172 5.76794 84.2582 5.76794C88.7118 5.76794 92.1303 7.96898 93.1393 8.83026L92.5478 14.4503L92.2173 14.4503C91.8868 9.72634 86.8417 7.3774 82.4402 7.3774C78.0388 7.3774 74.7421 10.257 74.7421 14.5373C74.7421 21.4884 81.5791 25.1162 86.2415 25.1162C90.9038 25.1162 93.3742 22.2366 93.8787 18.1912L94.2354 18.1912C94.0266 22.5585 91.4084 27.1694 84.9976 27.1694C78.5868 27.1694 73.6461 22.95 73.6461 16.0859L73.6461 16.0772Z" fill="white"/>
<path d="M110.197 22.4106L104.073 6.12463L101.698 5.76794L101.49 5.91584L102.351 8.17778L97.2362 20.9577C95.3921 25.2641 94.7658 26.2211 93.6698 26.6648L93.6437 26.8736L101.429 26.8736L101.429 26.6648C101.429 26.6648 100.237 26.3951 100.115 26.369C99.7674 26.2733 99.4195 26.1515 99.0889 25.9949C98.5583 25.7339 98.1321 25.325 97.9494 24.7508C97.7146 24.0113 97.8537 23.1675 98.019 22.428C98.567 19.9573 99.576 17.6083 100.411 15.2246C100.428 15.1898 100.437 15.1463 100.455 15.1115C100.724 14.3285 101.003 13.5542 101.272 12.7713C101.524 12.0666 101.768 11.3532 102.02 10.6485L102.516 9.23045C102.534 9.17825 102.647 8.97816 102.621 8.92596C102.829 9.48274 103.038 10.0395 103.247 10.605C103.699 11.8056 104.143 13.0061 104.595 14.198C105.047 15.2246 105.395 16.3295 105.795 17.3908C106.196 18.4522 106.596 19.5136 106.996 20.5749C107.257 21.2796 107.518 21.9756 107.779 22.6803C107.779 22.689 107.787 22.7064 107.796 22.7151C108.683 25.3859 108.214 26.3081 105.778 26.6648L105.778 26.8736L113.441 26.8736L113.441 26.6648C112.198 26.1602 111.362 25.2989 110.206 22.4106L110.197 22.4106Z" fill="white"/>
<path d="M126.984 6.06372L114.328 6.06372L114.328 6.27251C115.119 6.39431 115.685 6.9163 115.972 7.74277C116.007 7.83847 116.033 7.93417 116.059 8.03857C116.059 8.04727 116.059 8.06467 116.059 8.07337C116.076 8.16036 116.094 8.24736 116.111 8.33436C116.111 8.36046 116.111 8.39526 116.12 8.42136C116.128 8.49965 116.137 8.57795 116.146 8.66495C116.146 8.69975 116.146 8.72585 116.146 8.76065C116.146 8.87374 116.155 8.98684 116.155 9.09994L116.155 23.8373C116.155 25.238 115.711 26.3603 113.719 26.6648L113.719 26.8736L122.426 26.8736L122.426 26.6648C119.547 26.3342 118.503 25.238 118.503 23.8373L118.503 16.7818L118.851 16.7818C122.965 16.7644 123.844 17.5561 124.279 19.1134L124.479 19.1395L124.444 11.7099L124.244 11.7099C123.748 14.4677 122.983 15.3725 119.19 15.7031C118.964 15.7205 118.738 15.7379 118.512 15.7553L118.512 14.6243L118.521 14.0588L118.512 7.74277L118.512 6.62921C122.731 6.62921 125.819 6.838 126.949 11.1183L127.245 11.1183L126.975 6.06372L126.984 6.06372Z" fill="white"/>
<path d="M142.406 20.9229C141.363 25.8905 139.345 26.2994 137.144 26.2994C133.725 26.2994 132.986 24.8117 132.986 23.298L132.986 16.834C136.813 16.8601 137.657 17.6518 138.083 19.1656L138.283 19.1917L138.249 11.7621L138.048 11.7621C137.553 14.5199 136.787 15.4247 132.995 15.7553L132.995 6.6292C137.213 6.62921 140.301 6.838 141.432 11.1183L141.728 11.1183L141.458 6.06372L128.802 6.06372L128.802 6.27251C129.959 6.45521 130.646 7.49048 130.646 9.09994L130.646 23.8373C130.646 25.238 130.202 26.3603 128.21 26.6648L128.21 26.8736L142.432 26.8736L142.702 20.9316L142.406 20.9316L142.406 20.9229Z" fill="white"/>
</svg>
