<svg width="143" height="58" viewBox="0 0 143 58" fill="none" xmlns="http://www.w3.org/2000/svg">
<path d="M78.6689 42.9071C79.7562 42.9071 80.6348 42.0807 80.6348 41.0715C80.6348 40.0623 79.7562 39.2358 78.6689 39.2358C77.5816 39.2358 76.7031 40.0623 76.7031 41.0715C76.7031 42.0807 77.5816 42.9071 78.6689 42.9071Z" fill="#593710"/>
<path d="M28.7142 40.497C28.9751 40.497 29.4536 40.584 29.7058 40.8276C29.9668 41.0886 30.0189 41.367 30.0276 41.628C30.0276 44.4728 30.2886 53.8685 29.8276 55.5041C29.6362 56.1827 29.2448 56.8352 28.6098 57.2093C27.5138 57.853 26.0785 57.7051 24.7999 57.7225L24.7999 57.9487C25.5827 57.9487 26.47 58.0096 27.3311 57.9487C28.4793 57.8704 29.6797 57.4268 30.4365 56.6003C30.8105 56.1914 31.0889 55.7042 31.2367 55.1909C31.402 54.6428 31.4107 54.0338 31.4368 53.4684C31.4542 53.1204 31.4542 52.7637 31.4629 52.4157C31.4629 52.1808 31.4629 51.9459 31.4629 51.711L31.4629 51.0846C31.4629 50.6322 31.4542 50.1798 31.4629 49.7275C31.4629 49.6231 31.4629 49.5448 31.4629 49.4578L31.4629 47.1784C31.4455 45.4298 31.4194 43.6724 31.4629 41.9151L31.4629 41.889C31.4629 41.802 31.4629 41.7063 31.4629 41.6193C31.4629 41.3496 31.5151 41.0799 31.7847 40.8189C32.037 40.5666 32.5154 40.4883 32.7764 40.4883L32.7764 40.2534L28.7055 40.2534L28.7055 40.4883L28.7142 40.497Z" fill="#593710"/>
<path d="M120.509 39.8537C119.161 39.8537 117.812 39.8537 116.455 39.8537C117.491 39.9059 117.778 41.1848 117.778 42.1505C117.778 44.6908 117.76 47.2311 117.76 49.7715C117.76 50.6327 117.691 51.6245 116.951 52.1378C116.447 52.4858 115.76 52.5032 115.133 52.5032C96.3358 52.5293 77.5471 52.5641 58.7497 52.5902C56.8709 52.5902 54.7571 52.5032 53.4958 51.1982C52.078 49.7367 52.4259 47.4921 51.9562 45.5695C51.2429 42.6812 48.3116 40.4105 45.1366 40.28C42.4488 40.1756 39.8045 41.6111 38.4562 43.7599C37.134 45.874 37.3515 48.5709 38.6737 50.6414C39.3782 51.7376 40.3873 52.6598 41.6224 53.2253C44.7365 54.6607 48.9118 53.6603 50.895 50.9981C51.904 53.3297 50.4688 56.305 47.9375 57.1576C50.7471 56.8009 52.8696 53.93 52.2259 51.3548C53.2523 53.3123 56.0793 53.582 58.4192 53.582C77.1035 53.582 95.7791 53.582 114.463 53.582C115.568 53.582 116.76 53.5559 117.656 52.9469C119.004 52.0247 119.108 50.2239 119.091 48.6666C119.065 46.6396 119.039 44.6125 119.013 42.5855C118.995 41.4458 119.3 39.9494 120.518 39.8276L120.509 39.8537ZM50.2078 49.3974C50.0513 50.1369 49.7729 50.8676 49.3293 51.5201C48.8857 52.1813 48.242 52.7555 47.4591 53.1557C46.6675 53.5559 45.7368 53.756 44.8061 53.7647C43.8753 53.7647 42.9446 53.5559 42.153 53.1557C41.3615 52.7555 40.7265 52.1813 40.2829 51.5201C39.8392 50.8589 39.5609 50.1369 39.3956 49.3974C39.2304 48.6579 39.1695 47.901 39.1608 47.1354C39.1695 46.3699 39.2304 45.613 39.3956 44.8735C39.5522 44.134 39.8306 43.4032 40.2829 42.7508C40.7265 42.0896 41.3702 41.5154 42.153 41.1152C42.9446 40.715 43.8753 40.5149 44.8061 40.5062C45.7368 40.5062 46.6675 40.715 47.4591 41.1152C48.2507 41.5154 48.8857 42.0896 49.3293 42.7508C49.7729 43.4119 50.0513 44.134 50.2078 44.8735C50.3731 45.613 50.434 46.3699 50.4427 47.1354C50.434 47.901 50.3731 48.6579 50.2078 49.3974Z" fill="#593710"/>
<path d="M12.8564 5.81152L20.8242 5.81152L20.7981 6.02032C19.215 6.44661 18.4234 7.32528 18.2756 11.188L17.9711 27.4043L17.6406 27.4043L3.43597 9.15223L3.74042 21.0796L3.74042 21.1405L3.76652 21.8104C3.91439 25.5861 5.10607 26.343 7.96787 26.891L7.96787 27.0998L7.53634e-05 27.0998L0.0261698 26.891C1.63539 26.4648 2.42695 25.5861 2.58352 21.6277L2.82708 8.39535L1.00039 6.02032L1.20916 5.81152L3.94918 5.81152L17.3361 22.4194L17.0665 11.0401C16.9186 7.32528 15.7269 6.5684 12.8651 6.02032L12.8651 5.81152L12.8564 5.81152Z" fill="#593710"/>
<path d="M34.3681 6.11621L42.3359 6.11621L42.3011 6.32501C40.631 6.77739 39.7786 7.72567 39.7786 12.1364L39.7786 19.7748C39.7786 25.0643 37.6823 27.7177 32.1761 27.7177C27.0962 27.7177 24.1474 25.3775 24.1474 19.653L24.1474 9.22203C24.1474 7.79526 23.6951 6.6382 21.651 6.3337L21.651 6.12491L29.0447 6.12491L29.0447 6.3337C27.0092 6.6382 26.5482 7.79526 26.5482 9.22203L26.5482 19.5051C26.5482 24.0377 29.2273 25.9256 32.9329 25.9256C36.9516 25.9256 39.0131 24.6206 39.0131 19.9662C39.0131 16.7386 38.8304 14.4941 38.6217 11.7798C38.2911 7.69957 37.3169 6.88179 34.3594 6.3337L34.3594 6.12491L34.3681 6.11621Z" fill="#593710"/>
<path d="M60.9331 25.0468C61.8725 26.4127 62.2378 26.8998 62.6641 27.2043L62.6641 27.4131L56.4012 27.4131L56.4012 27.2043C57.6798 26.9346 58.3148 26.3866 57.5581 24.7075L52.4782 15.1204L48.3116 15.1204L48.3116 24.3073C48.3116 25.7341 49.3728 26.865 52.3303 27.1956L52.3303 27.4044L43.4143 27.4044L43.4143 27.1956C45.4498 26.8911 45.9108 25.7341 45.9108 24.3073L45.9108 9.22192C45.9108 7.57766 45.2149 6.51629 44.0232 6.3336L44.0232 6.1248L47.9462 6.1248C49.1901 6.1248 51.0168 5.82031 54.0874 5.82031C58.5584 5.82031 61.2636 7.18618 61.2636 10.4138C61.2636 13.0933 58.7671 14.9464 53.9917 15.1291L60.9244 25.0468L60.9331 25.0468ZM48.3116 13.6675C49.5555 14.2156 51.443 14.8246 53.1827 14.8246C56.8622 14.8246 58.4714 13.3978 58.4714 11.2055C58.4714 8.52594 55.5487 6.67289 52.2085 6.67289C50.3557 6.67289 48.3116 7.34277 48.3116 9.9875L48.3116 13.6675Z" fill="#593710"/>
<path d="M35.5859 1.36586L35.5859 0L27.0701 -3.72238e-07L27.0701 1.36586L35.5859 1.36586Z" fill="#593710"/>
<path d="M73.1461 16.0773C73.1461 9.23927 78.0172 5.76807 83.7582 5.76807C88.2118 5.76807 91.6303 7.96911 92.6393 8.83038L92.0478 14.4504L91.7173 14.4504C91.3868 9.72646 86.3417 7.37752 81.9402 7.37752C77.5388 7.37752 74.2421 10.2571 74.2421 14.5374C74.2421 21.4885 81.0791 25.1163 85.7415 25.1163C90.4038 25.1163 92.8742 22.2367 93.3787 18.1913L93.7354 18.1913C93.5266 22.5586 90.9084 27.1695 84.4976 27.1695C78.0868 27.1695 73.1461 22.9501 73.1461 16.086L73.1461 16.0773Z" fill="#593710"/>
<path d="M109.697 22.4107L103.573 6.12476L101.198 5.76807L100.99 5.91596L101.851 8.1779L96.7362 20.9579C94.8921 25.2642 94.2658 26.2212 93.1698 26.6649L93.1437 26.8737L100.929 26.8737L100.929 26.6649C100.929 26.6649 99.7371 26.3952 99.6153 26.3691C99.2674 26.2734 98.9195 26.1516 98.5889 25.995C98.0583 25.734 97.6321 25.3251 97.4494 24.7509C97.2146 24.0115 97.3537 23.1676 97.519 22.4281C98.067 19.9574 99.076 17.6084 99.9111 15.2247C99.9285 15.1899 99.9372 15.1464 99.9546 15.1116C100.224 14.3286 100.503 13.5544 100.772 12.7714C101.024 12.0667 101.268 11.3533 101.52 10.6486L102.016 9.23057C102.034 9.17837 102.147 8.97828 102.121 8.92608C102.329 9.48287 102.538 10.0396 102.747 10.6051C103.199 11.8057 103.643 13.0063 104.095 14.1981C104.547 15.2247 104.895 16.3296 105.295 17.3909C105.696 18.4523 106.096 19.5137 106.496 20.5751C106.757 21.2797 107.018 21.9757 107.279 22.6804C107.279 22.6891 107.287 22.7065 107.296 22.7152C108.183 25.386 107.714 26.3082 105.278 26.6649L105.278 26.8737L112.941 26.8737L112.941 26.6649C111.698 26.1603 110.862 25.299 109.706 22.4107L109.697 22.4107Z" fill="#593710"/>
<path d="M126.484 6.06396L113.828 6.06396L113.828 6.27276C114.619 6.39456 115.185 6.91654 115.472 7.74302C115.507 7.83872 115.533 7.93441 115.559 8.03881C115.559 8.04751 115.559 8.06491 115.559 8.07361C115.576 8.16061 115.594 8.24761 115.611 8.3346C115.611 8.3607 115.611 8.3955 115.62 8.4216C115.628 8.4999 115.637 8.5782 115.646 8.66519C115.646 8.69999 115.646 8.72609 115.646 8.76089C115.646 8.87399 115.655 8.98709 115.655 9.10018L115.655 23.8376C115.655 25.2382 115.211 26.3605 113.219 26.665L113.219 26.8738L121.926 26.8738L121.926 26.665C119.047 26.3344 118.003 25.2382 118.003 23.8376L118.003 16.7821L118.351 16.7821C122.465 16.7647 123.344 17.5564 123.779 19.1136L123.979 19.1397L123.944 11.7101L123.744 11.7101C123.248 14.4679 122.483 15.3727 118.69 15.7033C118.464 15.7207 118.238 15.7381 118.012 15.7555L118.012 14.6245L118.021 14.059L118.012 7.74302L118.012 6.62945C122.231 6.62945 125.319 6.83824 126.449 11.1185L126.745 11.1185L126.475 6.06396L126.484 6.06396Z" fill="#593710"/>
<path d="M141.906 20.9232C140.863 25.8907 138.845 26.2996 136.644 26.2996C133.225 26.2996 132.486 24.812 132.486 23.2982L132.486 16.8343C136.313 16.8604 137.157 17.6521 137.583 19.1658L137.783 19.1919L137.749 11.7623L137.548 11.7623C137.053 14.5201 136.287 15.4249 132.495 15.7555L132.495 6.62945C136.713 6.62945 139.801 6.83824 140.932 11.1185L141.228 11.1185L140.958 6.06396L128.302 6.06396L128.302 6.27276C129.459 6.45545 130.146 7.49073 130.146 9.10018L130.146 23.8376C130.146 25.2382 129.702 26.3605 127.71 26.665L127.71 26.8738L141.932 26.8738L142.202 20.9319L141.906 20.9319L141.906 20.9232Z" fill="#593710"/>
</svg>
